<svg xmlns="http://www.w3.org/2000/svg" viewBox="0 0 78.19 65.29"><defs><style>.cls-1{fill:#f75403;}.cls-2{fill:#eadbca;}</style></defs><title>Asset 2</title><g id="Layer_2" data-name="Layer 2"><g id="Layer_1-2" data-name="Layer 1"><path class="cls-1" d="M78.19,0V52.26c0,.42,0,.83-.06,1.24a13,13,0,0,1-13,11.79H0V0Z"/><path class="cls-2" d="M78.13,53.5a13,13,0,0,1-13,11.79h-20q.3-13.08.31-23.39c0-5.69.23-12,.19-19,0-1.47,0-3-.05-4.48L45.54,12h-.92L37.25,46.83H21.66L14.3,12h-.92l-.19,15.34Q13.07,37.63,13.07,42v4.79L0,47C.1,33.49.06,21.81.06,12L0,0H22.71l6.13,33h1.23L36.15,0H60.22s.22,49.8.29,53.63Q68,53.63,78.13,53.5Z"/></g></g></svg>